<svg xmlns="http://www.w3.org/2000/svg" viewBox="0 0 236 125"><!-- Crunches: drawing by Greg Priday for Everkinetic (everkinetic.com), from https://github.com/everkinetic/data (commit 446bb9a3d0c3beb6b84f7c9d77dfc8af707a2ab6). Licensed CC BY-SA 3.0, https://creativecommons.org/licenses/by-sa/3.0/ . Adapted by TrackIt: white background removed, lines recoloured with currentColor, fixed size dropped. This adaptation is released under the same licence. --><g fill="currentColor"><path d="M216.14 13.98c4.94-1.46 7.8-6.55 12.9-7.67 2.77 2.38 3.77 6.22 3.01 9.72-.35 7.25-7.84 10.52-12.02 15.45 1.5.36 3.73.34 4.21 2.24 1.21 3.38-.25 6.93-.62 10.34-6.23 3.57-13.73 2.82-20.55 4.4.19 11.75-.45 23.56-1.24 35.27.15 1.41.2 2.82.16 4.23l-.28.87c-1.59-1.18-1.77-3.1-1.75-4.9.29-9.59.87-19.18.82-28.79.37-2.94-.57-6.25 1.13-8.89 4.72-.93 9.68-.36 14.24-2.16-2.72-.37-5.46-.44-8.2-.42-12.99.18-26.05-.51-38.98 1.13-1.48.25-2.83.91-4.17 1.53 3.62.59 7.28.25 10.92.12-1.11 11.87-1.42 23.8-1.35 35.71-4.79-.09-9.59-.01-14.35.53-1.78 1.93-.26 5.24-.85 7.71 2.67-.43 5.37-.68 8.06-.86.44-.31 1.31-.94 1.74-1.26 6.99-.34 13.96-.72 20.92-1.45-.21-12.54.05-25.08 1.08-37.57-2.51-.2-5.03-.11-7.54-.19-.38 10.9-.52 21.8-1.2 32.68-.96-1.42-1.75-3.01-1.56-4.77.29-8.37.36-16.74.74-25.1-.01-1.94-.65-3.78-1.08-5.65 4.36.06 8.74-.24 13.07.39-.43 8.46-.7 16.92-1.2 25.38-.32 6 .38 12-.02 18-6.92-.35-13.86-.45-20.79 0-.38 2.32-.91 4.61-1.2 6.93 2.32 3.96 7.15 2.53 10.89 2.52 7.34.06 14.68-.2 22.02-.09 6.83-.67 13.68-.89 20.51-1.38.34-2.71 3-6.51-.64-8.03-6.58-1.39-13.41.55-20.02-.91.06-.22.18-.67.24-.9 6.39-.58 12.93.06 19.25-1.35 1.19.97 2.38 1.93 3.61 2.85.13 3.83-.42 7.63-.97 11.41-7.63-.91-15.34-.2-22.99.24-10.34-.21-20.7-.11-31.03-.11-2.85-2.62-3.03-6.5-3.2-10.09-4.1.12-8.21.32-12.31.04-1.81 2.29-3.07 5.27-5.87 6.53-1.95 1.02-4.16 1.37-6.32 1.62-4.63.53-9.34-1.38-13.85.12-3.81 1.02-7.87-1.23-11.56.46-3.58 1.4-7.21 2.78-11.07 3.17-7.71.36-15.18 3.08-22.97 2.37-5.91-.06-10.92-3.5-16.41-5.18-6.06-1.91-9.44-7.78-14.57-11.18-4.13-2.56-5.75-7.39-6.57-11.92-.81-3.23-4.13-4.6-7.18-4.68-.69.77-1.37 1.53-2.05 2.3-2.84-.49-5.93-.2-8.59-1.36-2.84-2.41-5.24-5.34-7.43-8.33.12-2.51.76-4.96 1.52-7.34-.07-4.51-.72-9.78 2.61-13.37 3.77-5.27 10.11-10.76 17.06-8.51-3.44 2.89-8.26 2.93-11.83 5.59-4.76 3.61-7.05 10.03-5.81 15.87 6.15-4.23 9.72-10.91 13.96-16.84 1.44-1.51 3.48-2.28 4.97-3.74 3.3-1.78 5.86-5.31 9.86-5.45 2.66.85 5 2.57 6.53 4.91 4.6 8.32 9.49 17.05 9.63 26.83 4.62.17 9.49.48 13.56 2.92 2.49 1.1 3.78 3.68 5.94 5.21 1.55.47 2.93-.88 4.36-1.27 1.9.45 3.78 1.01 5.54 1.86 3.11-.82 6.38-.65 9.25.89 2.65-.56 5.34-.94 8.04-1.16 1.97-.97 3.98-1.85 5.9-2.91l3.21-.09c2.52-3.34 5.02-6.84 4.45-11.31 1.17-1 2.67-1.73 3.4-3.15.89-4.63.11-9.4.95-14.04 1.24-6.91 2.02-14.4 6.71-19.98 1.66-2.3 4.95-.7 7.22-1.03-2.07 1.06-4.5 1.38-6.4 2.75-2.14 2.75-3.33 6.14-4.04 9.52-1.01 5.24-2.32 10.48-2.3 15.86.02 3.02-.15 6.05-1.01 8.96-1 .74-2.06 1.43-2.95 2.31-.35 2.55-.05 5.14.17 7.7-.73.04-2.2.14-2.93.18-.97 1.83-1.99 3.63-3.17 5.34-.71-.46-1.41-.92-2.1-1.38-1.99 1.32-4.24 2.08-6.54 2.65-2.84 1.17-5.83 1.96-8.82 2.57-2.84-1.35-5.68-3.4-8.81-1.49-3.46-2.17-7.43-1.91-11.08-.5-2.7-1.75-4.05-5.31-7.38-6.12-3.81-1.13-7.77-1.64-11.71-1.97-.39 3-.43 6.03.1 9.01 6.21 2.17 11.38 6.64 17.68 8.52 2.63.13 1.65-3.11 1.67-4.75.94.52 1.88 1.05 2.83 1.57-.6 1.33-1.17 2.66-1.71 4.01-.45.28-1.35.85-1.8 1.14.64.9 1.27 1.8 1.91 2.7 1.59-.53 3.19-1.05 4.8-1.56-.27 1.08-.55 2.17-.83 3.25-.86.06-2.59.17-3.45.23 1.14 2.28 2.4 4.56 4.46 6.16.48-.57 1.45-1.7 1.93-2.27 3.27 2.79 7.49 2.12 11.43 1.94-2.94 3.96-8.67 1.71-12.62.77-4.54 2.2-6.29-3.72-8.36-6.52-3.17-5.36-9.12-7.45-14.18-10.47.62 2.07 1.24 4.13 1.65 6.26-3.59-1.8-3.94-6.01-5.61-9.22-.87 2.6-1.68 5.22-2.65 7.79-.45-4.97-.18-9.95-.03-14.93.19-3.66 1.27-7.39.22-11.03-2.02-7.75-5.41-15.1-9.47-21.97-.98-1.94-3.9-3.87-5.66-1.78-3.24 3.01-7.14 5.08-10.79 7.53-3.39 3.35-5.23 7.88-8.12 11.62-2.87 3.12-6.77 5.01-9.98 7.74.52 3.11 1.96 5.99 4.42 7.99 1.5 1.14 2.8 3.32 4.97 2.81 2-.23 4.3-.24 5.71-1.93 1.06-2.66-.99-4.99-2-7.28 2.76-5.53 8.39-9.07 14.53-9.43.55 3.19.65 6.44 1.29 9.62.94-.19 1.88-.39 2.82-.58-1.69 3.93-2.88 8.04-4.32 12.06-1.6 3.62.05 7.71 1.69 11 5.46 4.55 10.45 10.04 17.22 12.64 4.07 1.57 7.61 4.63 12.09 4.99 2.85.25 5.82.78 8.61-.11 9.41-3.34 20.29-.7 28.96-6.4-1.66-6.14-3.6-12.23-4.05-18.61-2.47.87-4.74 2.16-6.69 3.91-1.68-.17-3.36-.39-5.03-.64 1.37-.6 2.76-1.15 4.17-1.64 2.72-2.11 5.8-3.8 9.2-4.46 1.44 7.26 1.7 14.87 5.01 21.62.4-.66 1.19-1.99 1.59-2.65-3.47-6.21-5.66-13.31-5.4-20.45.38.16 1.15.49 1.53.66 1.22 3.08 1.31 6.46 2.31 9.61 1.33 4.35 2.64 8.72 3.46 13.2 5.84-.51 11.69-.02 17.54-.09 4.23.08 7.59-2.89 11.01-4.97.72-5.92 4.94-10.47 5.96-16.26.72-2.79 1.57-5.55 2.48-8.28-5.51 1.37-11.2.5-16.65-.69-2.33-.55-4.08-2.33-6.03-3.6-1.89 1.38-3.89 2.6-5.93 3.73.61-2.55 1.75-4.9 3.17-7.09 1.48-2.29 1-5.13.98-7.7-.14-4.11.36-8.27 1.93-12.09 1.95-4.9 2.93-10.23 5.88-14.68 1.23-1.93 2.37-3.93 3.03-6.14 2.51-1.16 5.09-2.64 7.96-2.48 2.36.14 4.65.82 7.02.95 13.96-1.03 27.95 3.69 41.87.9 3.84-1.34 7.42-3.36 11.34-4.52m5.58-.2c-3.45 2.93-8.23 2.94-12.23 4.72-3.98 1.51-7.99 4.16-12.43 3.45-9.67-.91-19.34-2-29.05-2.31-2.64.01-5.32.44-7.92-.24-2.29-.33-4.67-1.52-6.95-.54-3.08.72-4.11 4.03-5.86 6.25 1.31.85 2.62 1.69 3.9 2.58-1.78 0-3.61.03-5.29-.64-4.96 10.33-6.72 21.7-8.92 32.83 3.09 1.48 5.97 3.42 9.18 4.65 5.33 1.18 10.9 1.83 16.27.46-.2-4.36 1.34-8.65.58-12.99-.42-4.19-3.5-7.74-3.24-12.04.12-1.48-.15-3.35 1.31-4.28.54 2.34.69 4.73.99 7.1 6.64-.36 13.3.01 19.9-.9 8.34-.23 16.69.04 25.03-.06 4.91.13 9.88-.44 14.72.54.21-2.54.76-5.04.81-7.59-6.86-2.71-14.35-1.2-21.51-1.55-5.7-.37-11.35.74-17.06.49-6.14-.27-11.72 3.07-17.82 3.08-3.08-.76-5.94-2.23-8.53-4.03 3.67-.45 7.17.84 10.35 2.53 5.38-2.22 11.15-3.91 17.03-3.7 3.7.1 7.36-.59 11.05-.77 7.24-.28 14.47.21 21.68.8 2.5-4.13 6.34-7.08 9.71-10.43 2.64-3.55 4.3-8.9.91-12.54-2.31 1.58-4.47 3.35-6.61 5.13m-57.11 34.69c.56 5.31.57 10.79-1.37 15.85.25.63.74 1.89.99 2.52-2.23 4.24-3.42 8.84-3.32 13.65 3.85-.36 7.71-.71 11.58-.87.4-10.43-.31-20.88 1.02-31.25-2.97 0-5.93.03-8.9.1M47.53 56.16c-3.7 1.25-6.82 3.65-9.17 6.75 1.42 1.92 2.26 4.1 1.73 6.52 4.16-1.15 5.78 3.68 8.98 5.29.31-3.17.98-6.29 1.93-9.32-1.91-2.76-2.75-6.01-3.47-9.24z"/><path d="M155.4 24.43c1.52-1.1 3.11-2.08 4.72-3.04.74.92 1.48 1.85 2.2 2.78-2.3.08-4.61.25-6.92.26zM163.72 29.16c3.73-1.11 7.47.57 11.25.24 3.66-.16 7.34-.31 11 .06-7.2 2.19-15.18 2.5-22.25-.3zM145.56 44.14c-.44-4.11 1.16-8.06 2.71-11.77 1.07 4.03-.44 8.41-2.71 11.77zM157.57 46.89c-1.28-4.17-1.82-8.65-.86-12.95 1.99.96 1.18 3.33 1.46 5.03.02 4.01.87 7.95 1.72 11.85-.72-1.34-1.46-2.67-2.32-3.93zM178.25 38.42c1.43-1.16 3.22 1.25 1.68 2.27-1.41 1.12-3.27-1.27-1.68-2.27zM53.91 53.85c-.23-3.42-.31-6.87.15-10.28.96 3.35.58 7.58 4.17 9.42-1.44.29-2.86.67-4.32.86zM44.7 49.04c2.16-.78 4.36-1.51 6.66-1.84-1.21 1.22-2.54 2.3-3.9 3.34-.69-.37-2.07-1.12-2.76-1.5zM156.41 64.61c.33-3.28 1.22-6.63 3.44-9.16-.08 3.31-.82 6.89-3.44 9.16zM120.96 74.06c-1.95-.65.22-2.98 1.56-2.37 1.2 1-.22 2.81-1.56 2.37zM75.62 74.78c3.73-.54 8.57-2.8 11.7.26-2.87.88-5.83 1.35-8.72 2.17-1-.81-1.99-1.62-2.98-2.43zM91.41 76.57c1.32-.59 4.26-1.94 4.26.49-.07 2.18-5.24 3.15-4.85-.18l.59-.31zM98.08 78.12c2.01-.66 4.19-.58 6.28-.88-1.21 1.8-2.55 3.55-3.1 5.7-1.39 1.28-2.87 2.48-4.49 3.48.66-1.39 1.47-2.69 2.46-3.86l1.64-2.28c-1.09.19-3.27.56-4.36.75-1.54 1.4-3.15 2.76-5.1 3.58 1.36-2.94 4.12-4.72 6.67-6.49zM95.79 92.24c.86-1.99 1.99-3.91 3.74-5.24.82 2.72-1.94 3.94-3.74 5.24z"/></g></svg>
